PathFileType	3	(X/Y/Z)	RCH0000002 BBF 12.c3d
DataRate	CameraRate	NumFrames	NumMarkers	Units	OrigDataRate	OrigDataStartFrame	OrigNumFrames
100.0	100.0	17	23	mm	100.0	363	406
Frame#	Time	T10			RPSI			LPAT			LANK			LMED			LTOE			RPAT			RKNE			RANK			RMED			RTOE			LKNE			RHEE			RASI			MAN			LHEE			LASI			T2			LPSI			RTHI			LTHI			RTIB			LTIB			
		X1	Y1	Z1	X2	Y2	Z2	X3	Y3	Z3	X4	Y4	Z4	X5	Y5	Z5	X6	Y6	Z6	X7	Y7	Z7	X8	Y8	Z8	X9	Y9	Z9	X10	Y10	Z10	X11	Y11	Z11	X12	Y12	Z12	X13	Y13	Z13	X14	Y14	Z14	X15	Y15	Z15	X16	Y16	Z16	X17	Y17	Z17	X18	Y18	Z18	X19	Y19	Z19	X20	Y20	Z20	X21	Y21	Z21	X22	Y22	Z22	X23	Y23	Z23	

363	3.620	227.20942	-60.12159	798.80420	222.73638	-109.71227	710.41715	326.70700	-32.99056	361.98039	109.03199	4.98632	109.30091	116.53995	-61.46160	129.37110	140.11401	-37.88157	79.49202	374.98607	-77.80524	395.61224	347.67322	-138.46052	355.07747	316.46639	-143.88061	82.05732	282.42669	-84.66134	97.42975	344.49246	-92.85906	73.56154	270.78698	17.84882	328.62684	262.16357	-133.88989	114.25453	344.76377	-146.21483	674.35344	352.60511	-64.00144	974.07394	92.37235	-25.46318	160.88754	311.56884	24.80777	648.99902	212.49079	-79.02151	984.24961	209.67832	-41.35071	698.60769	366.90073	-211.08825	463.21559	266.68208	92.69706	450.73745	353.76801	-204.55536	237.56936	205.78067	76.59365	229.69305	
364	3.630	234.19175	-58.94076	800.97157	229.03594	-108.63690	712.94248	336.79244	-33.30415	364.89864	120.10603	7.15948	111.49573	128.21480	-59.57475	130.67175	152.15739	-34.80704	81.62314	375.79823	-79.68071	395.85979	347.64824	-140.26219	355.78977	316.54900	-143.80506	82.53071	283.13122	-84.45271	98.17317	344.98740	-92.94805	73.79755	281.64884	18.70131	331.23549	262.29253	-133.50802	114.89758	350.30106	-147.28822	676.35232	359.32817	-63.93437	976.31456	103.33310	-24.37198	162.35772	319.69728	24.22816	650.96176	219.19836	-77.93812	986.09087	216.98837	-40.10292	701.12763	368.27912	-212.74235	463.75258	278.01699	93.33697	453.51440	352.78293	-205.90318	237.82148	216.00245	77.95858	232.94588	
365	3.640	241.00397	-58.00653	803.08419	235.17601	-107.65151	715.26897	347.03565	-33.14198	367.91963	131.27518	9.29720	113.71343	140.27542	-57.71707	131.90351	164.61454	-31.50502	83.85773	376.58218	-81.16638	396.09288	347.68454	-141.66838	356.44041	316.60107	-143.55456	83.02176	283.83680	-84.02955	98.88712	345.47523	-92.88297	74.01334	292.47610	19.76297	333.94649	262.41168	-132.90354	115.56299	355.66858	-148.31986	678.14974	365.93219	-63.94736	978.47985	114.46964	-23.51776	163.74524	327.61313	23.67740	652.98656	225.81823	-76.99629	987.96395	224.13515	-38.94448	703.55061	369.69462	-214.05125	464.18553	289.07323	94.16126	456.39211	351.82293	-206.92259	238.10587	225.97997	79.44000	236.39755	
366	3.650	247.64992	-57.27705	805.08897	241.16779	-106.73567	717.37284	357.50643	-32.42426	370.98174	142.56896	11.45393	115.94036	152.69903	-55.83208	133.06965	177.43166	-27.97883	86.16938	377.41697	-82.36761	396.31155	347.83198	-142.76963	357.04202	316.66020	-143.21646	83.52128	284.55536	-83.49326	99.58698	345.96701	-92.73747	74.20929	303.29418	21.05064	336.68950	262.56570	-132.18977	116.25284	360.88757	-149.28636	679.74257	372.42062	-64.03196	980.51879	125.82085	-22.79349	165.05712	335.32082	23.16987	654.99341	232.34833	-76.19913	989.81608	231.11606	-37.86026	705.81290	371.17897	-215.08421	464.54580	299.73675	95.16673	459.29900	350.96349	-207.70132	238.41451	235.82941	81.05954	239.97579	
367	3.660	254.13413	-56.70535	806.94052	247.02143	-105.87079	719.23826	368.26446	-31.12830	374.03952	154.03259	13.69714	118.17355	165.45410	-53.85190	134.18729	190.55756	-24.23411	88.54083	378.35847	-83.38617	396.51339	348.11763	-143.65935	357.60490	316.75067	-142.86120	84.01728	285.29467	-82.92761	100.28287	346.46959	-92.57302	74.38501	314.15031	22.56399	339.40681	262.78426	-131.45655	116.96200	365.97620	-150.17586	681.13487	378.79817	-64.17422	982.38537	137.42397	-22.06900	166.31401	342.83002	22.71000	656.90917	238.78747	-75.53863	991.59841	237.93056	-36.83734	707.85973	372.74658	-215.91651	464.85923	309.93453	96.33291	462.17369	350.24941	-208.32616	238.73406	245.70440	82.83301	243.61378	
368	3.670	260.46241	-56.24283	808.60188	252.74642	-105.04125	720.85668	379.35509	-29.29187	377.06523	165.72040	16.09821	120.42154	178.50378	-51.70586	135.28584	203.94680	-20.27990	90.96440	379.43734	-84.31138	396.69288	348.54611	-144.42409	358.13529	316.87983	-142.53750	84.49622	286.05582	-82.39252	100.97865	346.98331	-92.43480	74.53940	325.11329	24.28630	342.05688	263.07826	-130.76364	117.67915	370.94965	-150.98756	682.33590	385.07047	-64.35573	984.04037	149.31144	-21.20701	167.54934	350.15528	22.29264	658.67066	245.13536	-74.99680	993.26755	244.58122	-35.86561	709.64705	374.39654	-216.62085	465.14324	319.65014	97.62345	464.96875	349.69205	-208.87408	239.04684	255.77857	84.76999	247.25657	
369	3.680	266.64242	-55.84247	810.04482	258.35217	-104.23489	722.22618	390.80566	-27.00810	380.04894	177.68887	18.72287	122.70244	191.81033	-49.32940	136.40323	217.56255	-16.12970	93.44077	380.66100	-85.21690	396.84173	349.10209	-145.13797	358.63502	317.03878	-142.27227	84.94454	286.83281	-81.92319	101.67235	347.50175	-92.35110	74.67099	336.26850	26.18697	344.61666	263.44041	-130.14108	118.38895	375.82031	-151.73044	683.35842	391.24394	-64.55491	985.45250	161.50863	-20.07946	168.80556	357.31545	21.90419	660.22688	251.39271	-74.54761	994.78685	251.07464	-34.93795	711.14292	376.11431	-217.26239	465.40630	328.93113	98.99015	467.65331	349.27191	-209.40750	239.33295	266.22503	86.87368	250.86533	
370	3.690	272.68395	-55.46140	811.24981	263.84831	-103.44304	723.35077	402.62326	-24.41273	382.99714	189.99010	21.62266	125.03956	205.33950	-46.67211	137.58078	231.37856	-11.80242	95.97626	382.01838	-86.16110	396.94986	349.75495	-145.86040	359.10236	317.20662	-142.07437	85.35019	287.61404	-81.53358	102.35771	348.01340	-92.33547	74.77847	347.70855	28.22530	347.08248	263.84917	-129.59471	119.07462	380.59807	-152.42121	684.21712	397.32564	-64.74855	986.59912	174.03246	-18.58168	170.12804	364.33286	21.52434	661.54032	257.56140	-74.15934	996.12725	257.42187	-34.04974	712.32826	377.87383	-217.89656	465.64927	337.88604	100.37917	470.21447	348.94577	-209.97279	239.57287	277.19612	89.14053	254.41903	
371	3.700	278.59893	-55.06295	812.20569	269.24503	-102.66015	724.23971	414.79404	-21.66554	385.92983	202.66651	24.82838	127.45549	219.06428	-43.70373	138.85719	245.38010	-7.32298	98.57931	383.48605	-87.18880	397.00691	350.46486	-146.63611	359.53346	317.35683	-141.94027	85.70383	288.38502	-81.22241	103.02612	348.50452	-92.39042	74.86122	359.52081	30.35464	349.46905	264.27491	-129.11472	119.72054	385.29078	-153.08184	684.92755	403.32325	-64.91346	987.46639	186.89096	-16.64276	171.55777	371.23221	21.12820	662.58746	263.64463	-73.79732	997.26779	263.63830	-33.19827	713.19712	379.64045	-218.56854	465.86791	346.67059	101.73820	472.65708	348.65691	-210.60113	239.75014	288.80659	91.55978	257.91312	
372	3.710	284.40119	-54.61789	812.90918	274.55318	-101.88322	724.90678	427.28428	-18.92961	388.87650	215.74751	28.34607	129.96590	232.96744	-40.41785	140.26284	259.56377	-2.72273	101.25665	385.03438	-88.33256	397.00374	351.18984	-147.49605	359.92404	317.46387	-141.86012	85.99968	289.13156	-80.97986	103.66871	348.96234	-92.51147	74.91968	371.77413	32.52623	351.80675	264.68663	-128.68460	120.31449	389.90466	-153.73682	685.50530	409.24517	-65.02808	988.04902	200.08376	-14.23121	173.12423	378.03939	20.68883	663.35851	269.64720	-73.42663	998.19576	269.74314	-32.38189	713.75623	381.37522	-219.31339	466.05581	355.46514	103.02286	475.00197	348.34662	-211.31047	239.85351	301.12240	94.11283	261.35580	
373	3.720	290.10600	-54.10513	813.36433	279.78422	-101.11118	725.36949	440.04274	-16.35195	391.87125	229.24810	32.15575	132.57429	247.04249	-36.83305	141.81493	273.93637	1.96059	104.00983	386.63301	-89.61289	396.93383	351.89257	-148.45838	360.27081	317.50878	-141.82278	86.23589	289.84250	-80.79346	104.27805	349.37773	-92.69073	74.95551	384.50713	34.69224	354.13704	265.05784	-128.28841	120.84918	394.44488	-154.41042	685.96548	415.10061	-65.07384	988.34972	213.60330	-11.35605	174.83959	384.77995	20.17981	663.85650	275.57567	-73.01470	998.90666	275.75832	-31.59941	714.02387	383.04021	-220.15594	466.20693	364.44735	104.20083	477.28243	347.96493	-212.10753	239.87828	314.15624	96.77292	264.76275	
374	3.730	295.72941	-53.51178	813.58182	284.95015	-100.34425	725.64823	453.00411	-14.04886	394.94787	243.16948	36.21292	135.26854	261.29335	-32.99161	143.51409	288.51287	6.68326	106.83258	388.25514	-91.03758	396.79422	352.54619	-149.52929	360.57244	317.48250	-141.81894	86.41457	290.51165	-80.65196	104.84928	349.74690	-92.91932	74.97152	397.72031	36.80778	356.50657	265.37061	-127.91521	121.32303	398.91618	-155.12413	686.32243	420.89970	-65.03627	988.37831	227.43657	-8.06392	176.69503	391.47766	19.57785	664.09586	281.43856	-72.53349	999.40376	281.70710	-30.84953	714.02816	384.60422	-221.11036	466.31737	373.76532	105.25279	479.53903	347.47871	-212.98956	239.82672	327.86943	99.50529	268.15157	
375	3.740	301.28761	-52.83266	813.57824	290.06329	-99.58357	725.76543	466.09289	-12.09774	398.13532	257.50122	40.45204	138.01971	275.73268	-28.95625	145.34279	303.31415	11.39628	109.70929	389.88057	-92.60055	396.58586	353.13823	-150.70363	360.82991	317.38677	-141.84228	86.54150	291.13849	-80.54708	105.38074	350.07186	-93.18870	74.97146	411.37319	38.83174	358.96060	265.61753	-127.56030	121.74016	403.32352	-155.89448	686.58950	426.65363	-64.90571	988.15082	241.56716	-4.43314	178.65973	398.15297	18.86515	664.10049	287.24640	-71.96122	999.69746	287.61252	-30.13069	713.80481	386.04805	-222.17959	466.38624	383.51610	106.17060	481.81304	346.87620	-213.94565	239.70757	342.17926	102.26786	271.53674	
376	3.750	306.79623	-52.06952	813.37530	295.13614	-98.83077	725.74469	479.22728	-10.53599	401.45402	272.22454	44.79174	140.78313	290.37940	-24.80546	147.26570	318.36434	16.04633	112.61474	391.49754	-94.28147	396.31340	353.67223	-151.96560	361.04647	317.23289	-141.88896	86.62555	291.72796	-80.47331	105.87391	350.35965	-93.49084	74.95965	425.38675	40.72691	361.53657	265.80168	-127.22395	122.10969	407.67277	-156.73142	686.77899	432.37469	-64.67752	987.68846	255.97720	-0.56577	180.68229	404.82181	18.03141	663.90164	293.01175	-71.28348	999.80448	293.49580	-29.44095	713.39454	387.36818	-223.35504	466.41555	393.73331	106.95369	484.13927	346.16753	-214.95790	239.53483	356.97022	105.01250	274.92563	
377	3.760	312.26988	-51.22989	812.99898	300.18116	-98.08775	725.60992	492.32286	-9.36604	404.91342	287.31614	49.14091	143.50129	305.25554	-20.62789	149.23174	333.68846	20.57691	115.51487	393.10370	-96.04652	395.98451	354.16731	-153.28997	361.22710	317.03889	-141.95609	86.67802	292.28936	-80.42648	106.33311	350.62098	-93.81795	74.94059	439.65047	42.45951	364.25881	265.93498	-126.90856	122.44476	411.97134	-157.63729	686.90214	438.07620	-64.35198	987.01656	270.64906	3.42168	182.69429	411.49463	17.07521	663.53550	298.74908	-70.49372	999.74681	299.37502	-28.77813	712.84032	388.57843	-224.61705	466.40950	404.38517	107.60517	486.53945	345.38197	-216.00253	239.32617	372.10746	107.68670	278.31578	
378	3.770	317.72177	-50.32574	812.47859	305.21076	-97.35652	725.38456	505.29557	-8.56472	408.51045	302.75205	53.40512	146.10790	320.38282	-16.51649	151.17769	349.31007	24.92940	118.36847	394.70629	-97.85087	395.60894	354.65577	-154.64398	361.37796	316.82627	-142.04006	86.71180	292.83494	-80.40192	106.76489	350.86841	-94.16184	74.91855	454.03256	43.99845	367.13489	266.03583	-126.61562	122.76116	416.22864	-158.60657	686.96912	443.77247	-63.93372	986.16363	285.56652	7.40786	184.61533	418.17604	16.00472	663.04088	304.47447	-69.59309	999.55051	305.26411	-28.14001	712.18469	389.70942	-225.93646	466.37358	415.38260	108.12845	489.01740	344.56291	-217.05150	239.10113	387.45100	110.23562	281.69327	
379	3.780	323.16363	-49.37211	811.84569	310.23719	-96.63891	725.09081	518.06422	-8.09480	412.22909	318.51084	57.49271	148.53243	335.77918	-12.56282	153.03262	365.24913	29.04416	121.12933	396.32167	-99.64271	395.19754	355.17969	-155.99000	361.50569	316.61694	-142.13540	86.74050	293.37836	-80.39314	107.17732	351.11474	-94.51363	74.89736	468.39168	45.31458	370.15408	266.12649	-126.34346	123.07607	420.45642	-159.62635	686.98911	449.47855	-63.43086	985.16040	300.71528	11.27597	186.35878	424.86510	14.83752	662.45690	310.20528	-68.58977	999.24441	311.17249	-27.52436	711.46734	390.80597	-227.27703	466.31363	426.59471	108.52500	491.55680	343.76212	-218.07434	238.87931	402.86892	112.60429	285.03193	
